<svg width="505" height="476" viewBox="0 0 505 476" fill="none" xmlns="http://www.w3.org/2000/svg">
<path fill-rule="evenodd" clip-rule="evenodd" d="M412.231 387.044L255.088 291.86L237.993 318.407L215.874 290.87L88.2363 387.361L233.177 162.289L255.295 189.826L382.933 93.335L290.994 236.104L412.231 387.044Z" fill="white"/>
<path fill-rule="evenodd" clip-rule="evenodd" d="M0.457703 475.157L4.92444 471.712L202.094 319.663L233.677 360.968L234.546 362.105L235.312 360.894L261.249 319.838L500.065 472.008L504.825 475.041L501.392 470.551L317.798 230.437L317.799 230.436L317.762 230.388L459.764 5.62088L462.781 0.845852L458.314 4.29043L261.144 156.34L229.562 115.034L228.692 113.897L227.927 115.109L145.572 245.464L145.571 245.465L145.44 245.566L145.099 245.829L145.272 245.939L3.47446 470.382L0.457703 475.157ZM151.063 249.629L202.463 316.853L226.941 297.977L151.063 249.629ZM228.734 299.119L203.678 318.441L234.392 358.61L259.565 318.765L228.734 299.119ZM260.635 317.072L230.42 297.819L313.06 234.091L260.635 317.072ZM262.319 318.145L496.375 467.282L316.622 232.192L262.319 318.145ZM315 230.069L228.627 296.676L148.579 245.671L260.774 159.15L315 230.069ZM150.179 241.912L259.56 157.561L228.847 117.392L150.179 241.912ZM455.062 9.32382L316.468 228.696L262.359 157.929L455.062 9.32382ZM200.88 318.074L146.77 247.307L8.17639 466.679L200.88 318.074Z" fill="white"/>
</svg>
