<svg width="91" height="57" viewBox="0 0 91 57" fill="none" xmlns="http://www.w3.org/2000/svg">
<path fill-rule="evenodd" clip-rule="evenodd" d="M74.6616 16.0376L82.4767 20.5808L77.2161 29.4192L90.0641 50.5219H79.6947L72.2083 38.7788H71.5002L64.5704 50.5219H54.3526V50.1991L66.4166 29.6177L58.9809 17.2043H40.7458V33.3417H50.2048V42.7759H40.3665V50.5219H31.2615V42.7759H22.6625C21.6845 44.9689 18.6411 49.5883 14.291 50.5219C8.85333 51.6887 4.85727 51.1921 0.835938 48.5605L5.11018 40.1443C7.79108 41.8821 11.8984 42.9857 13.6081 40.1443C13.996 39.0601 14.5642 36.4947 13.7345 34.9058C12.905 33.3169 9.8987 26.8951 8.49924 23.8828C6.01336 18.532 7.37222 8.31641 13.7345 8.31641L30.2246 8.31641V16.8817H16.4431C16.4431 16.8817 15.69 16.8817 16.9213 19.6374C17.108 20.0553 17.4082 20.7348 17.7826 21.582C19.2013 24.7933 21.685 30.4148 23.0924 33.3417H31.2615V8.31641H64.4944L71.6014 20.5808L74.6616 16.0376ZM26.2639 36.2287L25.4641 40.2278H26.3324L26.8106 37.8266L27.635 39.8051H28.0464L29.5745 37.8517L29.1033 40.2278H29.9717L30.7658 36.2287H29.9717L28.018 38.7211L27.018 36.2287H26.2639ZM31.9489 40.0793C32.2421 40.224 32.5906 40.2964 32.9944 40.2964C33.3638 40.2964 33.699 40.2355 33.9999 40.1136C34.3046 39.9917 34.5655 39.8241 34.7826 39.6108C35.0035 39.3937 35.173 39.1405 35.291 38.851C35.4091 38.5577 35.4681 38.2397 35.4681 37.8969C35.4681 37.5541 35.3901 37.2532 35.2339 36.9942C35.0777 36.7314 34.853 36.5277 34.5597 36.3829C34.2703 36.2344 33.9237 36.1601 33.52 36.1601C33.1505 36.1601 32.8134 36.2211 32.5087 36.3429C32.2079 36.4648 31.947 36.6343 31.7261 36.8514C31.509 37.0647 31.3414 37.318 31.2233 37.6112C31.1052 37.9007 31.0462 38.2168 31.0462 38.5596C31.0462 38.9024 31.1243 39.2052 31.2804 39.468C31.4366 39.727 31.6594 39.9308 31.9489 40.0793ZM33.6799 39.388C33.5009 39.468 33.2991 39.508 33.0743 39.508C32.842 39.508 32.644 39.4661 32.4802 39.3823C32.3202 39.2985 32.1964 39.1824 32.1088 39.0338C32.025 38.8815 31.9831 38.7063 31.9831 38.5082C31.9831 38.2987 32.0155 38.1007 32.0803 37.914C32.1488 37.7236 32.2459 37.556 32.3716 37.4113C32.5011 37.2666 32.6554 37.1542 32.8344 37.0742C33.0134 36.9904 33.2153 36.9485 33.44 36.9485C33.6761 36.9485 33.8742 36.9904 34.0341 37.0742C34.1979 37.158 34.3217 37.2761 34.4055 37.4284C34.4893 37.577 34.5312 37.7503 34.5312 37.9483C34.5312 38.1578 34.4969 38.3578 34.4283 38.5482C34.3636 38.7348 34.2684 38.9005 34.1427 39.0452C34.017 39.19 33.8628 39.3042 33.6799 39.388ZM35.8868 36.2287L36.8124 40.2278H37.7265L40.2574 36.2287H39.2976L37.4884 39.0802L36.8409 36.2287H35.8868ZM40.5913 36.2287L39.7914 40.2278H40.7227L41.5225 36.2287H40.5913ZM42.9195 38.5596L42.7344 39.4851H44.9168L44.7625 40.2278H41.666L42.4659 36.2287H45.4881L45.3338 36.9714H43.2371L43.0635 37.8398H44.9225L44.7797 38.5596H42.9195ZM46.2588 40.2336C46.4645 40.2755 46.6758 40.2964 46.8929 40.2964C47.2662 40.2964 47.5899 40.2412 47.8642 40.1307C48.1422 40.0165 48.3574 39.8584 48.5097 39.6565C48.6621 39.4509 48.7383 39.2109 48.7383 38.9367C48.7383 38.7615 48.7021 38.6168 48.6297 38.5025C48.5574 38.3844 48.4621 38.2873 48.3441 38.2111C48.226 38.1349 48.0965 38.0721 47.9556 38.0226C47.8147 37.9731 47.6737 37.9293 47.5328 37.8912C47.3919 37.8531 47.2624 37.815 47.1443 37.7769C47.0262 37.735 46.931 37.6855 46.8587 37.6284C46.7901 37.5674 46.7558 37.4894 46.7558 37.3941C46.7558 37.2989 46.7882 37.2151 46.8529 37.1428C46.9215 37.0666 47.0186 37.0076 47.1443 36.9657C47.2738 36.9238 47.4281 36.9028 47.6071 36.9028C47.8051 36.9028 47.9975 36.9295 48.1841 36.9828C48.3707 37.0323 48.5402 37.1085 48.6926 37.2113L49.0411 36.5029C48.8697 36.3925 48.664 36.3087 48.424 36.2515C48.1841 36.1906 47.9289 36.1601 47.6585 36.1601C47.289 36.1601 46.9672 36.2173 46.693 36.3315C46.4188 36.442 46.2055 36.5981 46.0531 36.8C45.9046 37.0019 45.8303 37.2399 45.8303 37.5141C45.8303 37.6969 45.8665 37.8493 45.9389 37.9712C46.0112 38.0931 46.1045 38.194 46.2188 38.274C46.3369 38.3501 46.4664 38.4149 46.6073 38.4682C46.752 38.5177 46.8948 38.5615 47.0358 38.5996C47.1767 38.6377 47.3043 38.6777 47.4185 38.7196C47.5366 38.7577 47.6318 38.8053 47.7042 38.8624C47.7766 38.9195 47.8127 38.9938 47.8127 39.0852C47.8127 39.1843 47.7785 39.268 47.7099 39.3366C47.6452 39.4052 47.5499 39.4585 47.4243 39.4966C47.3024 39.5347 47.1557 39.5537 46.9843 39.5537C46.8282 39.5537 46.672 39.5385 46.5159 39.508C46.3597 39.4737 46.2093 39.4261 46.0645 39.3652C45.9236 39.3004 45.7903 39.2242 45.6646 39.1366L45.2876 39.8508C45.4018 39.9308 45.5408 40.005 45.7046 40.0736C45.8722 40.1421 46.0569 40.1955 46.2588 40.2336Z" fill="black"/>
<path d="M79.226 13.5453C78.9832 12.9297 78.9394 11.9481 78.9478 11.5344C76.5198 12.0508 76.0309 15.2254 76.0899 16.748C75.8369 16.4004 74.8 13.6695 75.2552 10.3428C75.6195 7.6813 77.9867 6.17184 79.1248 5.74979C83.8392 4.5581 86.2317 2.62162 86.8893 0.709961C89.3678 5.79944 86.9904 9.30001 85.1694 11.0627C86.2216 11.6585 87.53 10.3014 88.0527 9.54827C88.3899 10.9799 88.6445 14.3101 86.9652 16.177C85.2858 18.0439 81.6287 18.9576 80.01 19.181C81.3505 18.5852 83.7784 16.5742 83.3991 14.2157C82.9125 11.1911 83.5423 9.50689 83.8544 9.05174C81.4061 9.30994 79.7487 12.1551 79.226 13.5453Z" fill="black"/>
<path d="M2.44696 57.0001C2.11926 57.0001 1.80555 56.9542 1.50583 56.8622C1.2061 56.7663 0.968319 56.6444 0.79248 56.4966L1.06223 55.8911C1.23008 56.023 1.43789 56.1329 1.68566 56.2208C1.93343 56.3088 2.1872 56.3527 2.44696 56.3527C2.66676 56.3527 2.8446 56.3287 2.98047 56.2808C3.11635 56.2328 3.21626 56.1689 3.2802 56.089C3.34414 56.005 3.37611 55.9111 3.37611 55.8072C3.37611 55.6793 3.33015 55.5774 3.23824 55.5015C3.14632 55.4216 3.02643 55.3596 2.87857 55.3157C2.7347 55.2677 2.57285 55.2238 2.39301 55.1838C2.21717 55.1438 2.03934 55.0979 1.8595 55.0459C1.68366 54.99 1.52181 54.92 1.37395 54.8361C1.23008 54.7482 1.11219 54.6323 1.02027 54.4884C0.928356 54.3446 0.882398 54.1607 0.882398 53.9369C0.882398 53.7091 0.942343 53.5013 1.06223 53.3135C1.18612 53.1217 1.37195 52.9698 1.61972 52.8579C1.87149 52.742 2.1892 52.6841 2.57285 52.6841C2.82462 52.6841 3.07439 52.7161 3.32216 52.78C3.56993 52.8439 3.78573 52.9359 3.96957 53.0557L3.72379 53.6612C3.53596 53.5493 3.34214 53.4674 3.14232 53.4154C2.94251 53.3595 2.75068 53.3315 2.56685 53.3315C2.35105 53.3315 2.17521 53.3575 2.03934 53.4094C1.90746 53.4614 1.80955 53.5293 1.74561 53.6132C1.68566 53.6972 1.65569 53.7931 1.65569 53.901C1.65569 54.0288 1.69965 54.1328 1.78757 54.2127C1.87948 54.2886 1.99738 54.3486 2.14124 54.3925C2.28911 54.4365 2.45296 54.4804 2.63279 54.5244C2.81263 54.5644 2.99046 54.6103 3.1663 54.6623C3.34614 54.7142 3.50799 54.7822 3.65186 54.8661C3.79972 54.95 3.91761 55.0639 4.00553 55.2078C4.09745 55.3516 4.14341 55.5335 4.14341 55.7533C4.14341 55.9771 4.08146 56.1849 3.95758 56.3767C3.83769 56.5645 3.65186 56.7164 3.40009 56.8323C3.14832 56.9442 2.83061 57.0001 2.44696 57.0001Z" fill="black"/>
<path d="M4.91614 56.9402V52.744H6.64255C7.01421 52.744 7.33192 52.804 7.59568 52.9239C7.86343 53.0438 8.06924 53.2156 8.21311 53.4394C8.35698 53.6632 8.42891 53.9289 8.42891 54.2367C8.42891 54.5444 8.35698 54.8101 8.21311 55.0339C8.06924 55.2577 7.86343 55.4296 7.59568 55.5495C7.33192 55.6693 7.01421 55.7293 6.64255 55.7293H5.34774L5.69542 55.3636V56.9402H4.91614ZM5.69542 55.4475L5.34774 55.0699H6.60658C6.95027 55.0699 7.20803 54.998 7.37988 54.8541C7.55571 54.7062 7.64363 54.5004 7.64363 54.2367C7.64363 53.9689 7.55571 53.7631 7.37988 53.6192C7.20803 53.4754 6.95027 53.4034 6.60658 53.4034H5.34774L5.69542 53.0198V55.4475Z" fill="black"/>
<path d="M9.92646 54.4884H12.0125V55.1298H9.92646V54.4884ZM9.98641 56.2868H12.3542V56.9402H9.20712V52.744H12.2703V53.3974H9.98641V56.2868Z" fill="black"/>
<path d="M15.1652 57.0001C14.8455 57.0001 14.5478 56.9482 14.272 56.8443C14.0003 56.7364 13.7625 56.5865 13.5587 56.3947C13.3588 56.1989 13.203 55.9691 13.0911 55.7053C12.9792 55.4416 12.9232 55.1538 12.9232 54.8421C12.9232 54.5304 12.9792 54.2427 13.0911 53.9789C13.203 53.7151 13.3608 53.4873 13.5647 53.2955C13.7685 53.0997 14.0062 52.9498 14.278 52.8459C14.5498 52.738 14.8475 52.6841 15.1712 52.6841C15.5149 52.6841 15.8286 52.744 16.1123 52.8639C16.3961 52.9798 16.6358 53.1537 16.8317 53.3854L16.3281 53.859C16.1763 53.6952 16.0064 53.5733 15.8186 53.4933C15.6308 53.4094 15.4269 53.3675 15.2071 53.3675C14.9873 53.3675 14.7855 53.4034 14.6017 53.4754C14.4219 53.5473 14.264 53.6492 14.1281 53.7811C13.9963 53.913 13.8924 54.0688 13.8164 54.2486C13.7445 54.4285 13.7085 54.6263 13.7085 54.8421C13.7085 55.0579 13.7445 55.2557 13.8164 55.4356C13.8924 55.6154 13.9963 55.7713 14.1281 55.9031C14.264 56.035 14.4219 56.1369 14.6017 56.2088C14.7855 56.2808 14.9873 56.3168 15.2071 56.3168C15.4269 56.3168 15.6308 56.2768 15.8186 56.1969C16.0064 56.1129 16.1763 55.9871 16.3281 55.8192L16.8317 56.2988C16.6358 56.5266 16.3961 56.7004 16.1123 56.8203C15.8286 56.9402 15.5129 57.0001 15.1652 57.0001Z" fill="black"/>
<path d="M17.5783 56.9402V52.744H18.3576V56.9402H17.5783Z" fill="black"/>
<path d="M18.8992 56.9402L20.7874 52.744H21.5547L23.449 56.9402H22.6337L21.0092 53.1576H21.3209L19.7024 56.9402H18.8992ZM19.7684 55.9691L19.9782 55.3576H22.2441L22.4539 55.9691H19.7684Z" fill="black"/>
<path d="M23.9826 56.9402V52.744H24.7619V56.2808H26.9559V56.9402H23.9826Z" fill="black"/>
<path d="M29.9472 54.4884H32.0332V55.1298H29.9472V54.4884ZM30.0071 56.2868H32.3749V56.9402H29.2278V52.744H32.291V53.3974H30.0071V56.2868Z" fill="black"/>
<path d="M33.957 54.6743H36.0491V55.3337H33.957V54.6743ZM34.023 56.9402H33.2437V52.744H36.3069V53.3974H34.023V56.9402Z" fill="black"/>
<path d="M37.7738 54.6743H39.8659V55.3337H37.7738V54.6743ZM37.8398 56.9402H37.0605V52.744H40.1237V53.3974H37.8398V56.9402Z" fill="black"/>
<path d="M41.5966 54.4884H43.6827V55.1298H41.5966V54.4884ZM41.6566 56.2868H44.0244V56.9402H40.8773V52.744H43.9405V53.3974H41.6566V56.2868Z" fill="black"/>
<path d="M46.8354 57.0001C46.5156 57.0001 46.2179 56.9482 45.9422 56.8443C45.6704 56.7364 45.4326 56.5865 45.2288 56.3947C45.029 56.1989 44.8732 55.9691 44.7613 55.7053C44.6494 55.4416 44.5934 55.1538 44.5934 54.8421C44.5934 54.5304 44.6494 54.2427 44.7613 53.9789C44.8732 53.7151 45.031 53.4873 45.2348 53.2955C45.4386 53.0997 45.6764 52.9498 45.9482 52.8459C46.2199 52.738 46.5176 52.6841 46.8414 52.6841C47.185 52.6841 47.4987 52.744 47.7825 52.8639C48.0662 52.9798 48.306 53.1537 48.5018 53.3854L47.9983 53.859C47.8464 53.6952 47.6766 53.5733 47.4888 53.4933C47.3009 53.4094 47.0971 53.3675 46.8773 53.3675C46.6575 53.3675 46.4557 53.4034 46.2719 53.4754C46.092 53.5473 45.9342 53.6492 45.7983 53.7811C45.6664 53.913 45.5625 54.0688 45.4866 54.2486C45.4147 54.4285 45.3787 54.6263 45.3787 54.8421C45.3787 55.0579 45.4147 55.2557 45.4866 55.4356C45.5625 55.6154 45.6664 55.7713 45.7983 55.9031C45.9342 56.035 46.092 56.1369 46.2719 56.2088C46.4557 56.2808 46.6575 56.3168 46.8773 56.3168C47.0971 56.3168 47.3009 56.2768 47.4888 56.1969C47.6766 56.1129 47.8464 55.9871 47.9983 55.8192L48.5018 56.2988C48.306 56.5266 48.0662 56.7004 47.7825 56.8203C47.4987 56.9402 47.183 57.0001 46.8354 57.0001Z" fill="black"/>
<path d="M50.0529 56.9402V53.4034H48.6622V52.744H52.2229V53.4034H50.8322V56.9402H50.0529Z" fill="black"/>
<path d="M54.0676 57.0001C53.7399 57.0001 53.4262 56.9542 53.1264 56.8622C52.8267 56.7663 52.5889 56.6444 52.4131 56.4966L52.6828 55.8911C52.8507 56.023 53.0585 56.1329 53.3063 56.2208C53.5541 56.3088 53.8078 56.3527 54.0676 56.3527C54.2874 56.3527 54.4652 56.3287 54.6011 56.2808C54.737 56.2328 54.8369 56.1689 54.9008 56.089C54.9648 56.005 54.9967 55.9111 54.9967 55.8072C54.9967 55.6793 54.9508 55.5774 54.8589 55.5015C54.7669 55.4216 54.647 55.3596 54.4992 55.3157C54.3553 55.2677 54.1935 55.2238 54.0136 55.1838C53.8378 55.1438 53.66 55.0979 53.4801 55.0459C53.3043 54.99 53.1424 54.92 52.9946 54.8361C52.8507 54.7482 52.7328 54.6323 52.6409 54.4884C52.549 54.3446 52.503 54.1607 52.503 53.9369C52.503 53.7091 52.563 53.5013 52.6828 53.3135C52.8067 53.1217 52.9926 52.9698 53.2403 52.8579C53.4921 52.742 53.8098 52.6841 54.1935 52.6841C54.4452 52.6841 54.695 52.7161 54.9428 52.78C55.1906 52.8439 55.4064 52.9359 55.5902 53.0557L55.3444 53.6612C55.1566 53.5493 54.9628 53.4674 54.7629 53.4154C54.5631 53.3595 54.3713 53.3315 54.1875 53.3315C53.9717 53.3315 53.7958 53.3575 53.66 53.4094C53.5281 53.4614 53.4302 53.5293 53.3662 53.6132C53.3063 53.6972 53.2763 53.7931 53.2763 53.901C53.2763 54.0288 53.3203 54.1328 53.4082 54.2127C53.5001 54.2886 53.618 54.3486 53.7619 54.3925C53.9097 54.4365 54.0736 54.4804 54.2534 54.5244C54.4332 54.5644 54.6111 54.6103 54.7869 54.6623C54.9668 54.7142 55.1286 54.7822 55.2725 54.8661C55.4203 54.95 55.5382 55.0639 55.6262 55.2078C55.7181 55.3516 55.764 55.5335 55.764 55.7533C55.764 55.9771 55.7021 56.1849 55.5782 56.3767C55.4583 56.5645 55.2725 56.7164 55.0207 56.8323C54.7689 56.9442 54.4512 57.0001 54.0676 57.0001Z" fill="black"/>
<path d="M60.1357 57.0001C59.8159 57.0001 59.5182 56.9482 59.2425 56.8443C58.9707 56.7364 58.7329 56.5865 58.5291 56.3947C58.3293 56.1989 58.1735 55.9691 58.0616 55.7053C57.9497 55.4416 57.8937 55.1538 57.8937 54.8421C57.8937 54.5304 57.9497 54.2427 58.0616 53.9789C58.1735 53.7151 58.3313 53.4873 58.5351 53.2955C58.7389 53.0997 58.9767 52.9498 59.2485 52.8459C59.5202 52.738 59.8179 52.6841 60.1416 52.6841C60.4853 52.6841 60.799 52.744 61.0828 52.8639C61.3665 52.9798 61.6063 53.1537 61.8021 53.3854L61.2986 53.859C61.1467 53.6952 60.9769 53.5733 60.7891 53.4933C60.6012 53.4094 60.3974 53.3675 60.1776 53.3675C59.9578 53.3675 59.756 53.4034 59.5722 53.4754C59.3923 53.5473 59.2345 53.6492 59.0986 53.7811C58.9667 53.913 58.8628 54.0688 58.7869 54.2486C58.715 54.4285 58.679 54.6263 58.679 54.8421C58.679 55.0579 58.715 55.2557 58.7869 55.4356C58.8628 55.6154 58.9667 55.7713 59.0986 55.9031C59.2345 56.035 59.3923 56.1369 59.5722 56.2088C59.756 56.2808 59.9578 56.3168 60.1776 56.3168C60.3974 56.3168 60.6012 56.2768 60.7891 56.1969C60.9769 56.1129 61.1467 55.9871 61.2986 55.8192L61.8021 56.2988C61.6063 56.5266 61.3665 56.7004 61.0828 56.8203C60.799 56.9402 60.4833 57.0001 60.1357 57.0001Z" fill="black"/>
<path d="M64.4272 57.0001C64.0995 57.0001 63.7978 56.9462 63.522 56.8383C63.2463 56.7304 63.0065 56.5805 62.8027 56.3887C62.5989 56.1929 62.441 55.9651 62.3291 55.7053C62.2172 55.4416 62.1613 55.1538 62.1613 54.8421C62.1613 54.5304 62.2172 54.2447 62.3291 53.9849C62.441 53.7211 62.5989 53.4933 62.8027 53.3015C63.0065 53.1057 63.2463 52.9538 63.522 52.8459C63.7978 52.738 64.0975 52.6841 64.4212 52.6841C64.7489 52.6841 65.0486 52.738 65.3204 52.8459C65.5961 52.9538 65.8359 53.1057 66.0397 53.3015C66.2435 53.4933 66.4014 53.7211 66.5133 53.9849C66.6252 54.2447 66.6811 54.5304 66.6811 54.8421C66.6811 55.1538 66.6252 55.4416 66.5133 55.7053C66.4014 55.9691 66.2435 56.1969 66.0397 56.3887C65.8359 56.5805 65.5961 56.7304 65.3204 56.8383C65.0486 56.9462 64.7509 57.0001 64.4272 57.0001ZM64.4212 56.3168C64.633 56.3168 64.8288 56.2808 65.0087 56.2088C65.1885 56.1369 65.3444 56.035 65.4762 55.9031C65.6081 55.7673 65.71 55.6114 65.782 55.4356C65.8579 55.2557 65.8959 55.0579 65.8959 54.8421C65.8959 54.6263 65.8579 54.4305 65.782 54.2546C65.71 54.0748 65.6081 53.9189 65.4762 53.7871C65.3444 53.6512 65.1885 53.5473 65.0087 53.4754C64.8288 53.4034 64.633 53.3675 64.4212 53.3675C64.2094 53.3675 64.0136 53.4034 63.8337 53.4754C63.6579 53.5473 63.5021 53.6512 63.3662 53.7871C63.2343 53.9189 63.1304 54.0748 63.0545 54.2546C62.9825 54.4305 62.9466 54.6263 62.9466 54.8421C62.9466 55.0539 62.9825 55.2497 63.0545 55.4296C63.1304 55.6094 63.2343 55.7673 63.3662 55.9031C63.4981 56.035 63.6539 56.1369 63.8337 56.2088C64.0136 56.2808 64.2094 56.3168 64.4212 56.3168Z" fill="black"/>
<path d="M67.5072 56.9402V52.744H68.1486L69.9829 55.8072H69.6472L71.4515 52.744H72.093L72.0989 56.9402H71.3616L71.3556 53.901H71.5115L69.9769 56.4606H69.6292L68.0706 53.901H68.2505V56.9402H67.5072Z" fill="black"/>
<path d="M73.2324 56.9402V52.744H74.9588C75.3304 52.744 75.6482 52.804 75.9119 52.9239C76.1797 53.0438 76.3855 53.2156 76.5293 53.4394C76.6732 53.6632 76.7452 53.9289 76.7452 54.2367C76.7452 54.5444 76.6732 54.8101 76.5293 55.0339C76.3855 55.2577 76.1797 55.4296 75.9119 55.5495C75.6482 55.6693 75.3304 55.7293 74.9588 55.7293H73.664L74.0117 55.3636V56.9402H73.2324ZM74.0117 55.4475L73.664 55.0699H74.9228C75.2665 55.0699 75.5243 54.998 75.6961 54.8541C75.872 54.7062 75.9599 54.5004 75.9599 54.2367C75.9599 53.9689 75.872 53.7631 75.6961 53.6192C75.5243 53.4754 75.2665 53.4034 74.9228 53.4034H73.664L74.0117 53.0198V55.4475Z" fill="black"/>
<path d="M76.7192 56.9402L78.6074 52.744H79.3747L81.269 56.9402H80.4537L78.8292 53.1576H79.1409L77.5224 56.9402H76.7192ZM77.5884 55.9691L77.7982 55.3576H80.0641L80.2739 55.9691H77.5884Z" fill="black"/>
<path d="M81.8026 56.9402V52.744H82.444L85.0756 55.9751H84.7579V52.744H85.5312V56.9402H84.8898L82.2582 53.7091H82.5759V56.9402H81.8026Z" fill="black"/>
<path d="M87.6867 56.9402V55.2797L87.8605 55.7593L86.0382 52.744H86.8714L88.3341 55.1718H87.8665L89.3411 52.744H90.1084L88.2861 55.7593L88.4659 55.2797V56.9402H87.6867Z" fill="black"/>
</svg>
